<?xml version="1.0" encoding="UTF-8"?><svg id="Layer_1" xmlns="http://www.w3.org/2000/svg" viewBox="0 0 16 16"><defs><style>.cls-1{fill:#939598;}.cls-2,.cls-3{fill:none;stroke:#414042;stroke-linecap:round;stroke-miterlimit:10;stroke-width:.5px;}.cls-3{stroke-dasharray:0 0 .05 1;}</style></defs><path class="cls-1" d="M8,0C3.58,0,0,3.58,0,8s3.58,8,8,8,8-3.58,8-8S12.42,0,8,0Zm0,12c-2.21,0-4-1.79-4-4s1.79-4,4-4,4,1.79,4,4-1.79,4-4,4Z"/><g><line class="cls-2" x1="9.41" y1="12.39" x2="6.59" y2="15.21"/><line class="cls-2" x1="4.91" y1="11.42" x2="1.04" y2="10.38"/><line class="cls-2" x1="3.49" y1="7.03" x2="2.46" y2="3.17"/><line class="cls-2" x1="6.59" y1="3.61" x2="9.41" y2=".79"/><line class="cls-2" x1="11.09" y1="4.58" x2="14.96" y2="5.62"/><line class="cls-2" x1="12.5" y1="8.97" x2="13.54" y2="12.83"/></g><g><line class="cls-3" x1="11.69" y1="11.36" x2="10.74" y2="15.24"/><line class="cls-3" x1="6.94" y1="12.88" x2="3.1" y2="13.99"/><line class="cls-3" x1="3.25" y1="9.52" x2=".36" y2="6.75"/><line class="cls-3" x1="4.31" y1="4.64" x2="5.26" y2=".76"/><line class="cls-3" x1="9.06" y1="3.12" x2="12.9" y2="2.01"/><line class="cls-3" x1="12.75" y1="6.48" x2="15.64" y2="9.25"/></g></svg>